<svg width="256" height="256" viewBox="0 0 256 256" fill="none" xmlns="http://www.w3.org/2000/svg">
<rect width="256" height="256" rx="41" fill="white"/>
<path d="M111.937 138.947C110.948 127.735 103.873 111.811 86.7609 111.043C61.534 111.111 57.8774 130.628 60.2488 139.273C62.2382 146.535 67.5194 152.326 75.0235 151.668C82.5276 151.01 88.1821 144.38 87.4184 136.889C87.287 128.944 94.0274 129.152 94.231 137.941C94.5069 149.64 86.6039 159.91 74.9472 160.936C63.2902 161.955 53.8988 153.186 51.9473 141.653C50.768 134.654 52.1086 121.245 64.0116 110.767C79.3081 97.303 95.9704 113.448 94.6171 91.6061C93.2512 69.5649 87.7111 69.0985 73.4242 60.5128C63.9773 54.8328 62.3612 45.823 62.8914 42.2937C62.9126 42.124 62.9126 41.8694 62.5776 42.0817C53.7288 47.6387 53.6569 57.8278 58.8276 65.7687C61.3092 69.5738 66.4375 71.5334 66.9637 77.5571C67.6807 85.7271 62.9805 88.2213 59.1075 91.5937C55.2388 94.966 50.632 98.5844 43.6836 105.732C32.5867 117.151 29.6682 131.582 30.5549 143.812C31.5347 155.019 36.9687 164.771 44.952 171.47C52.948 178.172 63.4979 181.824 74.7051 180.84C85.9165 179.856 95.6645 174.422 102.371 166.434C109.069 158.442 112.916 150.154 111.937 138.947Z" fill="#B53926"/>
<path d="M224.579 138.947C223.59 127.735 216.509 111.811 199.383 111.043C174.135 111.111 170.475 130.628 172.849 139.273C174.84 146.535 180.125 152.326 187.636 151.668C195.146 151.01 200.805 144.38 200.041 136.889C199.909 128.944 206.655 129.152 206.859 137.941C207.135 149.64 199.226 159.91 187.559 160.936C175.893 161.955 166.493 153.186 164.54 141.653C163.36 134.654 164.702 121.245 176.615 110.767C191.924 97.303 208.6 113.448 207.245 91.6061C205.878 69.5649 200.334 69.0985 186.035 60.5128C176.58 54.8328 174.963 45.823 175.494 42.2937C175.515 42.124 175.515 41.8694 175.179 42.0817C166.323 47.6387 166.251 57.8278 171.426 65.7687C173.91 69.5738 179.043 71.5334 179.569 77.5571C180.287 85.7271 175.583 88.2213 171.706 91.5937C167.835 94.966 163.224 98.5844 156.27 105.732C145.164 117.151 142.243 131.582 143.13 143.812C144.111 155.019 149.549 164.771 157.539 171.47C165.542 178.172 176.101 181.824 187.317 180.84C198.538 179.856 208.294 174.422 215.006 166.434C221.709 158.442 225.56 150.154 224.579 138.947Z" fill="#B53926"/>
</svg>
