<svg width="256" height="256" viewBox="0 0 256 256" fill="none" xmlns="http://www.w3.org/2000/svg">
<path d="M117.335 136.443C116.617 128.297 111.476 116.726 99.0421 116.168C80.7118 116.218 78.0548 130.399 79.7779 136.681C81.2235 141.958 85.0609 146.165 90.5135 145.687C95.9661 145.209 100.075 140.392 99.5198 134.948C99.4244 129.175 104.322 129.326 104.47 135.713C104.67 144.214 98.928 151.676 90.4581 152.422C81.9879 153.161 75.1639 146.79 73.7459 138.41C72.889 133.324 73.8631 123.581 82.512 115.968C93.6267 106.184 105.734 117.916 104.751 102.045C103.758 86.0294 99.7325 85.6905 89.3514 79.452C82.4871 75.3248 81.3128 68.7781 81.6981 66.2137C81.7135 66.0904 81.7135 65.9054 81.47 66.0596C75.0404 70.0974 74.9881 77.501 78.7452 83.271C80.5484 86.0359 84.2748 87.4598 84.6571 91.8367C85.178 97.7732 81.7628 99.5855 78.9486 102.036C76.1376 104.486 72.7902 107.116 67.7413 112.309C59.6781 120.607 57.5575 131.093 58.2018 139.979C58.9137 148.122 62.8622 155.208 68.663 160.075C74.473 164.945 82.1388 167.599 90.2821 166.884C98.4286 166.169 105.512 162.221 110.385 156.417C115.252 150.609 118.047 144.587 117.335 136.443Z" fill="#B53926"/>
<path d="M200.076 136.443C199.357 128.297 194.212 116.726 181.767 116.168C163.422 116.218 160.763 130.399 162.487 136.681C163.934 141.958 167.775 146.165 173.232 145.687C178.689 145.209 182.801 140.392 182.246 134.948C182.15 129.175 187.052 129.326 187.2 135.713C187.4 144.214 181.653 151.676 173.176 152.422C164.699 153.161 157.869 146.79 156.45 138.41C155.593 133.324 156.568 123.581 165.224 115.968C176.348 106.184 188.465 117.916 187.481 102.045C186.487 86.0294 182.458 85.6905 172.069 79.452C165.199 75.3248 164.023 68.7781 164.409 66.2137C164.424 66.0904 164.424 65.9054 164.181 66.0596C157.746 70.0974 157.693 77.501 161.454 83.271C163.258 86.0359 166.988 87.4598 167.37 91.8367C167.892 97.7732 164.474 99.5855 161.657 102.036C158.844 104.486 155.494 107.116 150.441 112.309C142.371 120.607 140.248 131.093 140.893 139.979C141.606 148.122 145.558 155.208 151.363 160.075C157.178 164.945 164.85 167.599 173 166.884C181.153 166.169 188.242 162.221 193.119 156.417C197.99 150.609 200.788 144.587 200.076 136.443Z" fill="#B53926"/>
<circle cx="128" cy="128" r="115.5" stroke="#B53926" stroke-width="25"/>
</svg>
