<?xml version="1.0" encoding="iso-8859-1"?>
<!-- Uploaded to: SVG Repo, www.svgrepo.com, Generator: SVG Repo Mixer Tools -->
<svg fill="currentColor" height="800px" width="800px" version="1.1" id="Layer_1" xmlns="http://www.w3.org/2000/svg" xmlns:xlink="http://www.w3.org/1999/xlink" 
	 viewBox="0 0 496 496" xml:space="preserve">
<g>
	<g>
		<g>
			<path d="M480,480v-48h-48V184C432,82.536,349.464,0,248,0S64,82.536,64,184v248H16v48H0v16h16h464h16v-16H480z M80,323.096
				l12.456,4.152l18.024,12.016l-7.64,22.896l19.504,19.496l11.312-11.312l-12.504-12.504l4.616-13.84H144v-16h-21.576
				l-21.984-14.656L80,306.296V184c0-92.632,75.368-168,168-168s168,75.368,168,168v88h-25.888l-32,16h-26.8l-13.656-13.656
				l-11.312,11.312L324.688,304h25.072l-4.448,17.8l-19.832,6.616l5.064,15.168l28.168-9.384l8.168-32.688L393.888,288H416v144h-16
				v-16h-16v16h-16v-16h-16v16h-16v-16h-16v16h-16v-16h-16v16h-16v-16h-16v16h-16v-16h-16v16h-16v-16h-16v16h-16v-16h-16v16h-16v-16
				h-16v16h-16v-16H96v16H80V323.096z M464,480H32v-32h32h368h32V480z"/>
			<path d="M216,217.128V368h64V217.128c18.48-8.064,33.056-22.648,41.128-41.128H344v-64h-22.872
				c-8.064-18.488-22.64-33.064-41.128-41.128V48h-64v22.872c-18.488,8.064-33.064,22.64-41.128,41.128H152v64h22.872
				C182.944,194.48,197.52,209.056,216,217.128z M216,199.256c-9.688-5.592-17.664-13.568-23.256-23.256H216V199.256z M280,199.256
				V176h23.256C297.664,185.688,289.688,193.664,280,199.256z M280,88.736c9.688,5.592,17.672,13.576,23.264,23.264H280V88.736z
				 M216,88.736V112h-23.264C198.328,102.312,206.312,94.328,216,88.736z M168,128h64V64h32v64h64v32h-64v192h-32V160h-64V128z"/>
		</g>
	</g>
</g>
</svg>